# xmcd
#
# Track frame offsets: 
#        183
#        24700
#        47615
#        72325
#        79888
#        99413
#        109960
#        132227
#        149381
#
# Disc length: 2228 seconds
#
# Revision: 2
# Processed by: cddbd v1.5.2PL0 Copyright (c) Steve Scherf et al.
# Submitted via: ExactAudioCopyFreeDBPlugin 1.0
#
DISCID=7d08b209
DTITLE=Curtis Mayfield - Superfly (The Original Motion Picture Sountra
DTITLE=ck)
DYEAR=1972
DGENRE=Soul
TTITLE0=Little Child Runnin' Wild
TTITLE1=Pusherman
TTITLE2=Freddie's Dead
TTITLE3=Junkie Chase (instrumental)
TTITLE4=Give Me Your Love (Love Song)
TTITLE5=Eddie You Should Know Better
TTITLE6=No Thing on Me (Cocaine Song)
TTITLE7=Think (instrumental)
TTITLE8=Superfly
EXTD=
EXTT0=
EXTT1=
EXTT2=
EXTT3=
EXTT4=
EXTT5=
EXTT6=
EXTT7=
EXTT8=
PLAYORDER=
